<?xml version="1.0" encoding="utf-8"?>
<!-- Generator: Adobe Illustrator 25.0.1, SVG Export Plug-In . SVG Version: 6.00 Build 0)  -->
<svg version="1.1" id="레이어_1" xmlns="http://www.w3.org/2000/svg" xmlns:xlink="http://www.w3.org/1999/xlink" x="0px"
	 y="0px" viewBox="0 0 800 600" enable-background="new 0 0 800 600" xml:space="preserve">
<g>
	<g>
		<path fill="#FFFFFF" d="M211.86,429.19l-8.76,15.54c-6.75-4.76-15.89-7.62-23.87-7.62c-9.12,0-14.77,3.81-14.77,10.64
			c0,8.3,10.03,10.23,24.93,15.63c16.02,5.72,25.23,12.44,25.23,27.24c0,20.26-15.79,31.64-38.48,31.64
			c-11.06,0-24.4-2.88-34.66-9.17l6.39-17.23c8.33,4.45,18.3,7.08,27.18,7.08c11.97,0,17.67-4.46,17.67-11.05
			c0-7.54-8.68-9.81-22.69-14.49C154.06,472,143,464.94,143,448.55c0-18.48,14.67-29.09,35.77-29.09
			C193.47,419.45,205.3,424.16,211.86,429.19"/>
		<polygon fill="#FFFFFF" points="280.34,439.01 280.34,520.55 259.71,520.55 259.71,439.01 229.77,439.01 229.77,421.16 
			310.19,421.16 310.19,439.01 		"/>
		<polygon fill="#FFFFFF" points="353.67,438.95 353.67,461.35 393.14,461.35 393.14,479.2 353.67,479.2 353.67,502.53 
			399.47,502.53 399.47,520.55 333.05,520.55 333.05,421.16 399.47,421.16 399.47,438.95 		"/>
		<path fill="#FFFFFF" d="M464.56,444.87l-13.45,39.79h27.18L464.56,444.87z M445.51,501.25l-6.52,19.3h-21.62l36.93-99.39h20.76
			l37.98,99.39h-22.36l-6.66-19.3H445.51z"/>
		<polygon fill="#FFFFFF" points="618.89,459.57 591.94,517.65 580.3,517.65 553.78,460.09 553.78,520.55 534.03,520.55 
			534.03,421.16 553.73,421.16 586.84,492.9 618.76,421.16 638.64,421.16 638.64,520.55 618.89,520.55 		"/>
		<path fill="#FFFFFF" d="M662.55,432.99h2.41c1.56,0,2.48-0.99,2.48-2.23c0-1.25-0.66-2.06-2.48-2.06h-2.4V432.99z M665.09,426.63
			c3.53,0,4.71,1.89,4.71,3.92c0,1.87-1.1,3.12-2.43,3.76l3.16,5.98h-2.59l-2.67-5.31h-2.75v5.31h-2.16v-13.67H665.09z
			 M653.53,433.7c0,7.15,5.1,11.63,11.37,11.63c6.25,0,11.33-4.49,11.33-11.63c0-7.17-5.08-11.59-11.33-11.59
			C658.64,422.11,653.53,426.58,653.53,433.7 M678.52,433.7c0,8.54-6.34,13.86-13.62,13.86c-7.3,0-13.67-5.32-13.67-13.86
			c0-8.54,6.36-13.83,13.67-13.83C672.18,419.87,678.52,425.16,678.52,433.7"/>
	</g>
	<g>
		<path fill="#FFFFFF" d="M450.04,212.73c18.78,0,34.06-15.3,34.06-34.12c0-18.8-15.28-34.11-34.06-34.11
			c-18.77,0-34.05,15.31-34.05,34.11C415.98,197.43,431.27,212.73,450.04,212.73z M450.09,152.93c14.13,0,25.59,11.48,25.59,25.63
			c0,14.15-11.46,25.62-25.59,25.62c-14.12,0-25.57-11.47-25.57-25.62C424.52,164.41,435.98,152.93,450.09,152.93z"/>
		<path fill="#FFFFFF" d="M353.37,291.08c14.66,6.11,31.54-0.85,37.65-15.54c2.96-7.09,2.97-14.95,0.05-22.06
			c-2.92-7.12-8.44-12.68-15.54-15.64c-7.05-2.93-14.59-2.84-21.23-0.32l17.2,7.13c10.81,4.5,15.93,16.93,11.42,27.76
			c-4.5,10.81-16.9,15.94-27.72,11.44l-16.64-6.9C341.5,283.1,346.61,288.26,353.37,291.08z"/>
		<path fill="#FFFFFF" d="M405.86,77.75c-71.32,0-129.67,55.48-134.28,125.63c0.02,0.03,0.04,0.06,0.06,0.1c0,0,0-0.02,0-0.02
			l72.31,29.77c1.97-1.29,4.06-2.41,6.3-3.33c5.08-2.09,10.43-3.03,15.76-2.78l32.93-47.83c-0.01-0.21-0.01-0.44-0.01-0.67
			c0-28.23,22.93-51.2,51.11-51.2c28.2,0,51.11,22.97,51.11,51.2c0,28.23-22.92,51.21-51.11,51.21c-0.38,0-0.77-0.01-1.16-0.02
			l-47.12,33.67c0.14,5.2-0.82,10.41-2.88,15.37c-7.9,19-29.8,28.05-48.79,20.11c-11.61-4.84-19.48-14.9-22.04-26.37l-50.94-21.02
			c16.8,55.17,68.08,95.31,128.74,95.31c74.32,0,134.57-60.25,134.57-134.57C540.42,138,480.17,77.75,405.86,77.75z"/>
	</g>
</g>
</svg>
